<?xml version="1.0" standalone="no"?>
<!DOCTYPE svg PUBLIC "-//W3C//DTD SVG 20010904//EN"
 "http://www.w3.org/TR/2001/REC-SVG-20010904/DTD/svg10.dtd">
<svg version="1.0" xmlns="http://www.w3.org/2000/svg"
 width="1080.000000pt" height="1080.000000pt" viewBox="0 0 1080.000000 1080.000000"
 preserveAspectRatio="xMidYMid meet">

<g transform="translate(0.000000,1080.000000) scale(0.100000,-0.100000)"
fill="#000000" stroke="none">
<path d="M2229 5966 c-69 -14 -101 -35 -138 -87 -39 -53 -55 -125 -48 -216 9
-115 38 -166 179 -306 135 -133 157 -171 158 -263 0 -51 -4 -64 -23 -82 -33
-31 -90 -30 -122 3 -22 21 -25 33 -25 90 l0 65 -85 0 -85 0 0 -77 c1 -123 40
-201 123 -246 35 -18 58 -22 137 -22 83 0 101 3 140 25 95 53 145 187 120 327
-18 105 -50 155 -181 285 -64 64 -124 129 -132 145 -51 98 -21 203 59 203 55
0 77 -28 82 -104 l4 -66 85 0 86 0 -5 84 c-8 147 -68 223 -194 245 -70 13 -63
13 -135 -3z"/>
<path d="M3529 5970 c-92 -16 -157 -70 -186 -154 -16 -45 -18 -92 -18 -416 0
-395 2 -416 54 -487 46 -63 107 -88 216 -88 81 0 95 3 142 29 60 33 97 81 113
146 7 30 10 170 8 425 -3 370 -4 381 -25 421 -25 46 -73 91 -118 110 -42 17
-131 24 -186 14z m110 -175 c16 -8 31 -25 35 -37 3 -13 6 -180 6 -371 l0 -348
-25 -24 c-35 -36 -96 -35 -124 1 -20 26 -21 38 -21 386 l0 359 25 24 c27 28
63 32 104 10z"/>
<path d="M4738 5970 c-109 -19 -177 -89 -199 -205 -28 -153 12 -243 185 -417
109 -110 126 -132 140 -179 19 -62 20 -85 5 -128 -13 -37 -35 -51 -79 -51 -64
0 -90 38 -90 131 l0 49 -86 0 -87 0 5 -89 c4 -72 11 -98 33 -139 48 -88 130
-128 249 -120 152 10 230 92 243 253 6 80 -14 176 -49 234 -12 20 -74 90 -138
156 -65 66 -123 131 -130 145 -50 95 -18 200 61 200 49 0 73 -31 79 -102 l5
-63 83 -3 c64 -2 84 0 88 12 9 24 -15 165 -35 205 -46 90 -155 133 -283 111z"/>
<path d="M6819 5970 c-80 -14 -135 -54 -175 -130 -15 -28 -19 -57 -19 -140 0
-149 17 -183 180 -349 69 -71 132 -145 140 -165 22 -53 20 -138 -6 -170 -16
-21 -29 -26 -63 -26 -61 0 -80 24 -86 109 l-5 66 -85 0 -85 0 3 -80 c6 -168
82 -253 238 -263 194 -12 291 94 282 311 -5 134 -30 180 -179 327 -125 123
-158 174 -159 243 0 66 32 106 85 106 56 0 85 -42 85 -125 l0 -44 86 0 87 0
-5 83 c-6 88 -28 147 -71 188 -51 49 -157 74 -248 59z"/>
<path d="M7739 5970 c-58 -10 -97 -30 -137 -71 -59 -61 -64 -91 -69 -434 -8
-479 9 -553 137 -621 27 -15 56 -19 130 -19 74 0 103 4 130 19 116 62 139 137
140 449 l0 177 -130 0 -130 0 0 -80 0 -80 40 0 40 0 0 -134 c0 -120 -2 -136
-21 -160 -16 -21 -29 -26 -64 -26 -35 0 -48 5 -64 26 -20 26 -21 38 -21 386
l0 359 25 24 c30 31 79 33 115 5 22 -17 26 -28 30 -107 l5 -88 85 0 85 0 -2
91 c-4 146 -38 216 -126 257 -59 29 -131 38 -198 27z"/>
<path d="M2660 5400 l0 -560 90 0 90 0 2 248 3 247 93 3 92 3 0 -251 0 -250
90 0 90 0 0 560 0 560 -90 0 -90 0 -2 -227 -3 -228 -90 0 -90 0 -3 228 -2 227
-90 0 -90 0 0 -560z"/>
<path d="M3980 5400 l0 -560 240 0 240 0 0 80 0 80 -150 0 -150 0 0 170 0 170
120 0 120 0 0 80 0 79 -117 3 -118 3 -3 142 -3 142 148 3 148 3 3 83 3 82
-241 0 -240 0 0 -560z"/>
<path d="M5410 5400 l0 -560 178 0 c165 0 180 2 227 24 60 28 77 46 107 111
22 48 23 62 26 372 5 418 -5 485 -82 555 -50 46 -109 58 -293 58 l-163 0 0
-560z m324 377 c29 -21 35 -86 35 -377 0 -383 -3 -395 -112 -395 l-62 0 -3
393 -2 392 63 0 c36 0 71 -6 81 -13z"/>
<path d="M6060 5400 l0 -560 245 0 246 0 -3 78 -3 77 -150 5 -150 5 -3 168 -2
167 120 0 120 0 0 80 0 79 -117 3 -118 3 -3 142 -3 142 153 3 153 3 3 83 3 82
-246 0 -245 0 0 -560z"/>
<path d="M7240 5400 l0 -560 90 0 90 0 0 560 0 560 -90 0 -90 0 0 -560z"/>
<path d="M8170 5400 l0 -560 85 0 85 0 2 386 3 386 99 -386 99 -386 94 0 93 0
0 560 0 560 -80 0 -80 0 -1 -317 c0 -208 -4 -310 -10 -295 -5 13 -38 139 -74
280 -36 141 -70 274 -75 295 l-11 37 -114 0 -115 0 0 -560z"/>
</g>
</svg>
